<?xml version="1.0" standalone="no"?>
<!DOCTYPE svg PUBLIC "-//W3C//DTD SVG 20010904//EN"
 "http://www.w3.org/TR/2001/REC-SVG-20010904/DTD/svg10.dtd">
<svg version="1.0" xmlns="http://www.w3.org/2000/svg"
 width="33.000000pt" height="30.000000pt" viewBox="0 0 33.000000 30.000000"
 preserveAspectRatio="xMidYMid meet">

<g transform="translate(0.000000,30.000000) scale(0.100000,-0.100000)"
fill="#000000" stroke="none">
<path d="M0 150 l0 -150 165 0 165 0 0 150 0 150 -165 0 -165 0 0 -150z m155
80 c3 -11 3 -29 0 -41 -10 -30 -69 -23 -73 9 -6 37 5 52 37 52 21 0 32 -6 36
-20z m90 -20 c0 -32 -3 -35 -32 -38 -24 -2 -33 1 -38 17 -3 12 -3 30 0 42 5
16 14 19 38 17 29 -3 32 -6 32 -38z m-101 -63 c11 -8 17 -23 14 -38 -2 -20 -9
-25 -40 -27 -37 -3 -38 -3 -38 32 0 44 29 59 64 33z m90 7 c10 -4 16 -18 16
-41 0 -33 -1 -34 -37 -31 -32 2 -39 7 -41 27 -3 15 3 30 14 38 20 15 26 16 48
7z"/>
<path d="M90 210 c0 -15 7 -20 25 -20 18 0 25 5 25 20 0 15 -7 20 -25 20 -18
0 -25 -5 -25 -20z"/>
<path d="M190 210 c0 -15 7 -20 25 -20 18 0 25 5 25 20 0 15 -7 20 -25 20 -18
0 -25 -5 -25 -20z"/>
<path d="M92 118 c2 -15 11 -24 26 -26 18 -3 22 1 22 22 0 21 -5 26 -26 26
-21 0 -25 -4 -22 -22z"/>
<path d="M190 114 c0 -21 4 -25 23 -22 14 2 23 11 25 26 3 18 -1 22 -22 22
-21 0 -26 -5 -26 -26z"/>
</g>
</svg>
