<?xml version="1.0" standalone="no"?>
<!DOCTYPE svg PUBLIC "-//W3C//DTD SVG 20010904//EN"
 "http://www.w3.org/TR/2001/REC-SVG-20010904/DTD/svg10.dtd">
<svg version="1.0" xmlns="http://www.w3.org/2000/svg"
 width="43.000000pt" height="30.000000pt" viewBox="0 0 43.000000 30.000000"
 preserveAspectRatio="xMidYMid meet">

<g transform="translate(0.000000,30.000000) scale(0.100000,-0.100000)"
fill="#000000" stroke="none">
<path d="M147 144 c-16 -31 -26 -58 -24 -61 3 -2 30 7 61 21 52 23 60 24 80
11 21 -14 23 -13 40 21 9 20 15 39 12 41 -2 2 -18 -3 -36 -12 -30 -16 -33 -15
-65 9 -19 14 -35 26 -37 26 -2 0 -16 -25 -31 -56z m83 -1 c0 -4 -65 -33 -75
-33 -2 0 3 15 12 34 15 33 17 34 39 19 13 -8 24 -17 24 -20z m60 -1 c0 -13
-12 -22 -22 -16 -10 6 -1 24 13 24 5 0 9 -4 9 -8z"/>
</g>
</svg>
