<?xml version="1.0" standalone="no"?>
<!DOCTYPE svg PUBLIC "-//W3C//DTD SVG 20010904//EN"
 "http://www.w3.org/TR/2001/REC-SVG-20010904/DTD/svg10.dtd">
<svg version="1.0" xmlns="http://www.w3.org/2000/svg"
 width="33.000000pt" height="32.000000pt" viewBox="0 0 33.000000 32.000000"
 preserveAspectRatio="xMidYMid meet">

<g transform="translate(0.000000,32.000000) scale(0.100000,-0.100000)"
fill="#000000" stroke="none">
<path d="M0 160 l0 -160 165 0 165 0 0 160 0 160 -165 0 -165 0 0 -160z m160
70 c0 -38 32 -70 70 -70 36 0 38 -13 5 -45 -33 -34 -87 -34 -120 0 -34 33 -34
87 0 120 32 33 45 31 45 -5z"/>
<path d="M116 219 c-23 -33 -20 -66 9 -94 28 -29 64 -32 95 -7 l22 17 -37 14
c-28 10 -41 23 -55 53 l-18 40 -16 -23z"/>
</g>
</svg>
