<?xml version="1.0" standalone="no"?>
<!DOCTYPE svg PUBLIC "-//W3C//DTD SVG 20010904//EN"
 "http://www.w3.org/TR/2001/REC-SVG-20010904/DTD/svg10.dtd">
<svg version="1.0" xmlns="http://www.w3.org/2000/svg"
 width="30.000000pt" height="28.000000pt" viewBox="0 0 30.000000 28.000000"
 preserveAspectRatio="xMidYMid meet">

<g transform="translate(0.000000,28.000000) scale(0.100000,-0.100000)"
fill="#000000" stroke="none">
<path d="M0 140 l0 -140 150 0 150 0 0 140 0 140 -150 0 -150 0 0 -140z m164
94 c22 -9 21 -61 -2 -73 -26 -14 -52 5 -52 39 0 34 21 47 54 34z m37 -115 c11
-11 18 -26 16 -32 -5 -16 -139 -16 -144 0 -8 22 35 53 72 53 22 0 43 -8 56
-21z"/>
<path d="M124 205 c-4 -9 -2 -21 4 -27 15 -15 44 -1 40 19 -4 23 -36 29 -44 8z"/>
<path d="M95 110 c-12 -20 11 -31 56 -28 31 2 44 7 44 18 0 19 -89 27 -100 10z"/>
</g>
</svg>
